<?xml version="1.0" standalone="no"?>
<!DOCTYPE svg PUBLIC "-//W3C//DTD SVG 20010904//EN"
 "http://www.w3.org/TR/2001/REC-SVG-20010904/DTD/svg10.dtd">
<svg version="1.0" xmlns="http://www.w3.org/2000/svg"
 width="913.000000pt" height="464.000000pt" viewBox="0 0 913.000000 464.000000"
 preserveAspectRatio="xMidYMid meet">

<g transform="translate(0.000000,464.000000) scale(0.100000,-0.100000)"
fill="#000000" stroke="none">
<path d="M5970 3554 c-391 -36 -656 -108 -1105 -300 -472 -201 -562 -234 -723
-260 -89 -14 -409 -21 -444 -9 -7 2 -40 6 -73 9 -112 10 -253 36 -365 67 -19
5 -64 16 -100 23 -36 8 -92 22 -125 30 -270 72 -544 113 -845 126 -272 13
-423 4 -571 -34 -266 -67 -489 -219 -605 -411 -156 -258 -153 -693 5 -893 138
-174 324 -300 556 -377 102 -33 291 -71 425 -85 58 -6 310 -13 560 -16 452 -5
672 -15 1140 -54 276 -23 252 -20 645 -88 431 -75 700 -111 890 -119 218 -10
624 -10 784 0 315 19 831 117 918 174 13 9 26 13 29 10 7 -7 171 53 281 104
24 10 45 19 48 19 3 0 49 22 103 48 92 45 146 77 267 158 254 170 461 426 515
639 23 89 27 244 9 341 -27 147 -135 343 -245 446 -32 29 -67 62 -78 74 -12
12 -35 28 -51 37 -17 8 -39 24 -49 36 -11 12 -26 21 -34 21 -8 0 -36 13 -61
28 -25 16 -64 35 -86 42 -22 7 -49 19 -60 26 -11 8 -26 14 -35 14 -8 0 -56 14
-105 31 -50 17 -107 32 -128 35 -21 2 -65 13 -98 24 -33 11 -63 19 -67 16 -4
-2 -41 2 -82 10 -211 40 -394 56 -695 59 -165 1 -320 1 -345 -1z m766 -48 c67
-9 144 -18 171 -20 26 -3 75 -12 108 -20 33 -8 81 -17 106 -20 26 -3 57 -10
70 -15 13 -6 74 -22 134 -37 61 -14 115 -29 120 -34 6 -4 28 -13 50 -20 22 -6
68 -25 103 -41 35 -16 69 -29 77 -29 8 0 18 -6 22 -13 4 -8 31 -27 58 -43 57
-33 55 -31 114 -81 128 -108 216 -242 277 -423 29 -85 27 -319 -3 -415 -44
-138 -158 -303 -304 -439 -85 -79 -221 -181 -281 -212 -18 -9 -40 -22 -48 -29
-22 -19 -247 -130 -305 -150 -27 -10 -70 -26 -95 -37 -25 -11 -94 -36 -155
-55 -60 -20 -119 -39 -130 -44 -102 -43 -524 -115 -822 -140 -194 -16 -820 -7
-958 15 -55 8 -167 24 -250 36 -177 25 -485 76 -536 90 -20 6 -60 12 -90 16
-30 3 -121 14 -204 24 -157 20 -419 45 -590 55 -55 3 -134 10 -175 15 -41 6
-304 12 -585 14 -535 5 -631 11 -835 52 -157 32 -248 62 -375 124 -122 59
-209 124 -302 225 -127 138 -173 263 -173 478 0 254 72 440 229 590 181 173
427 273 716 292 109 7 485 -9 605 -25 223 -30 337 -53 685 -140 116 -29 235
-56 265 -60 226 -32 316 -40 465 -41 304 -2 335 7 1066 298 500 200 636 238
966 272 132 14 665 5 809 -13z"/>
</g>
</svg>
